<svg xmlns="http://www.w3.org/2000/svg" viewBox="0 0 400 200" width="100%" height="100%">
  <defs>
    <style>
      @import url('https://fonts.googleapis.com/css2?family=Playfair+Display:ital,wght@0,600&amp;family=Inter:wght@300;400;500;600&amp;family=JetBrains+Mono:wght@400;500&amp;display=swap');
    </style>

    <linearGradient id="obsidianBase" x1="0%" y1="0%" x2="100%" y2="100%">
      <stop offset="0%" stop-color="#020905" />
      <stop offset="50%" stop-color="#04120B" />
      <stop offset="100%" stop-color="#010604" />
    </linearGradient>

    <radialGradient id="spotlight" cx="15%" cy="15%" r="65%">
      <stop offset="0%" stop-color="#0B301D" stop-opacity="0.4" />
      <stop offset="100%" stop-color="#0B301D" stop-opacity="0" />
    </radialGradient>

    <radialGradient id="mistEdge" cx="85%" cy="95%" r="50%">
      <stop offset="0%" stop-color="#062925" stop-opacity="0.25" />
      <stop offset="100%" stop-color="#062925" stop-opacity="0" />
    </radialGradient>

    <filter id="cardShadow" x="-10%" y="-10%" width="120%" height="120%">
      <feDropShadow dx="0" dy="8" stdDeviation="12" flood-color="#000000" flood-opacity="0.6" />
    </filter>
    <filter id="logoGlow" x="-50%" y="-50%" width="200%" height="200%">
      <feDropShadow dx="0" dy="0" stdDeviation="12" flood-color="#10B981" flood-opacity="0.12" />
    </filter>
  </defs>

  <rect width="394" height="194" x="3" y="3" rx="16" fill="url(#obsidianBase)" stroke="#11291D" stroke-width="1.2" filter="url(#cardShadow)" />
  <rect width="394" height="194" x="3" y="3" rx="16" fill="url(#spotlight)" />
  <rect width="394" height="194" x="3" y="3" rx="16" fill="url(#mistEdge)" />

  <path d="M -50 80 C 100 50, 200 150, 450 100" fill="none" stroke="#FFFFFF" stroke-opacity="0.015" stroke-width="1" />
  <path d="M -20 100 C 130 70, 230 170, 480 120" fill="none" stroke="#FFFFFF" stroke-opacity="0.02" stroke-width="1" />

  <g transform="translate(20, 20)">
    <rect width="36" height="36" rx="10" fill="rgba(255,255,255,0.02)" stroke="rgba(255,255,255,0.06)" stroke-width="1" filter="url(#logoGlow)" />
    <rect width="36" height="36" rx="10" fill="rgba(16, 185, 129, 0.03)" />
    <text x="18" y="18" font-size="18" dominant-baseline="central" text-anchor="middle">🌿</text>
  </g>

  <text x="68" y="37" font-family="'Playfair Display', serif" font-size="20" font-weight="600" fill="#FDFBF7" letter-spacing="0.5">Origo</text>
  <text x="70" y="52" font-family="'Inter', sans-serif" font-size="7.5" font-weight="600" fill="#6EE7B7" letter-spacing="1.5" text-transform="uppercase">Where Weather Meets Exploration</text>

  <text x="20" y="82" font-family="'Inter', sans-serif" font-size="11.5" font-weight="300" fill="#E2E8F0" letter-spacing="0.2">Explore cities through weather-aware recommendations,</text>
  <text x="20" y="98" font-family="'Inter', sans-serif" font-size="11.5" font-weight="300" fill="#E2E8F0" letter-spacing="0.2">live forecasts, and local discovery.</text>

  <g transform="translate(20, 120)">
    
    <g transform="translate(0, 0)">
      <rect width="76" height="22" rx="6" fill="rgba(255,255,255,0.02)" stroke="rgba(255,255,255,0.06)" stroke-width="1" />
      <g transform="translate(5.5, 5.5) scale(0.78)">
        <rect width="14" height="14" fill="#F7DF1E"/>
        <path d="M9.8 11.5c-.5.3-1.1.5-1.7.5-.8 0-1.4-.2-1.7-.7l1.1-.7c.2.3.5.5.8.5.3 0 .6-.1.6-.4 0-.3-.2-.4-.9-.7-.9-.3-1.5-.7-1.5-1.7 0-1 .7-1.6 1.7-1.6.6 0 1.1.2 1.5.5l-1 .7c-.2-.2-.4-.3-.6-.3-.3 0-.5.1-.5.3 0 .2.2.3.7.5.9.3 1.7.6 1.7 1.8 0 1-.7 1.6-1.7 1.7zm-4.3.4h-1.2V7h1.2v4.9z" fill="#000000"/>
      </g>
      <text x="22" y="11" font-family="'JetBrains Mono', monospace" font-size="8" font-weight="500" fill="#94A3B8" dominant-baseline="central">JavaScript</text>
    </g>

    <g transform="translate(82, 0)">
      <rect width="62" height="22" rx="6" fill="rgba(255,255,255,0.02)" stroke="rgba(255,255,255,0.06)" stroke-width="1" />
      <g transform="translate(4, 4)">
        <svg xmlns="http://www.w3.org/2000/svg" viewBox="670 -10 230 230" width="14" height="14">
          <path fill="#6f6f6e" d="M138.146 154.633q-25.46 25.89-52.1 25.89-7.735-.001-14.878-1.99-7.145-1.984-17.402-6.712-10.26-4.725-18.1-6.87-14.505 15.9-26.212 15.9c-2.723 0-4.98-.89-6.768-2.68C.896 176.37 0 174.19 0 171.61c0-5.44 2.667-10.225 8.003-14.34q8.002-6.18 22.612-8.54 6.122-8.383 7.842-16.386 1.717-7.995 2.686-26.37 1.825-37.806 20.25-59.24 18.421-21.43 40.014-21.43 14.825 0 24.33 9.4 9.509 9.4 9.508 24.01 0 16.864-9.99 29.54c-9.99 12.676-14.324 12.675-22.988 12.675-4.512 0-8.057-1.24-10.635-3.71s-3.867-5.86-3.867-10.15q0-3.33 1.29-7.74 2.898 3.33 7.304 3.33c4.86 0 9.13-2.9 12.78-8.7s5.48-12.71 5.48-20.74c0-6.16-1.4-11.01-4.19-14.56s-6.62-5.32-11.48-5.32c-5.87 0-10.43 2.11-13.69 6.34s-5.53 9.272-6.82 15.15c-1.29 5.87-2.66 15.36-4.12 28.47-1.46 13.1-3.89 24.72-7.3 34.852-3.42 10.13-9.79 20.065-19.13 29.8q9.135-.645 15.84 1.08 6.705 1.716 19.23 6.495c8.34 3.19 15.52 4.78 21.53 4.78 11.74 0 22.95-6.01 33.62-18.04v12.35zm80.244 0q-13.644 13.43-24.492 19.818c-7.234 4.26-15.22 6.4-23.955 6.4-9.74 0-17.6-3.11-23.58-9.34q-8.97-9.345-8.97-24.6 0-22.77 15.792-41.19 15.79-18.42 35.02-18.42 9.989 0 16.006 5.16c4.01 3.44 6.02 7.95 6.02 13.54 0 14.83-15.75 26.86-47.26 36.1 2.87 13.97 10.35 20.95 22.45 20.95 4.73 0 9.24-1.27 13.54-3.81s10.78-8.18 19.45-16.92v12.36zM162.1 134.76q27.5-7.733 27.5-28.575 0-10.313-7.52-10.313-7.089.001-13.534 10.796t-6.445 28.092zm171.017 19.873q-17.188 16.33-24.6 21.27t-14.18 4.94q-16.973 0-16.006-29.97c-7.16 10.242-13.76 17.797-19.81 22.666-6.05 4.86-12.3 7.3-18.74 7.3-6.3 0-11.65-2.96-16.06-8.87q-6.6-8.865-6.6-21.75c0-10.75 2.96-20.99 8.87-30.73s13.48-17.62 22.72-23.64 17.4-9.03 24.49-9.03c8.95 0 15.22 4.12 18.8 12.35l21.96-12.14h6.03l-9.47 31.48q-7.32 23.745-7.32 32.55c0 6.15 2.18 9.23 6.55 9.23 2.79 0 5.87-1.49 9.23-4.46s8.09-7.5 14.17-13.59v12.36zm-78.633 5.908c7.16 0 13.91-6.1 20.25-18.31q9.506-18.315 9.506-33.78c0-4.01-.896-7.14-2.686-9.4-1.79-2.25-4.19-3.38-7.197-3.38q-10.743 0-20.356 18.27c-6.41 12.18-9.61 23.39-9.61 33.63 0 3.87.95 7 2.85 9.4s4.31 3.6 7.25 3.6zm165.752-5.9c-7.44 8.38-14.808 14.84-22.104 19.39s-13.806 6.82-19.53 6.82c-2.718 0-6.437-1.03-11.157-3.1-3.02 15.75-5.682 32.76-7.983 51.01-7.456 1.01-16.417 2.55-26.882 4.63 2.29-19.62 6.266-45.08 11.922-76.37-.79-1.36-2.186-4.79-4.19-10.31l-7.195 7.95h-2.47v-9.67l20.478-21.23c3.892-19.21 7.056-33.12 9.492-41.71 2.434-8.59 5.836-18.1 10.205-28.52q6.551-15.63 8.27-17.94c1.146-1.54 3.922-3.01 8.326-4.4s9.112-2.72 14.126-3.97c5.012-1.25 7.697-1.88 8.057-1.88 2.73 0 4.95 1.77 6.66 5.32q2.58 5.31 2.58 14.007c0 10.02-2.64 19.677-7.93 28.977s-15.29 20.74-30 34.334l-9.03 44.9c3.5 7.51 8.76 11.267 15.76 11.267 10.01 0 20.88-7.27 32.6-21.81v12.357zM384.16 93.41q12.557-10.957 19.698-23.58 7.14-12.622 7.14-23.26 0-4.511-1.66-7.41-1.66-2.901-4.122-2.9-4.714 0-9.586 12.36-4.875 12.36-11.47 44.79m107.082 61.23c-9.74 8.95-18.28 15.56-25.62 19.816-7.342 4.26-14.34 6.395-21 6.395q-11.498 0-18.53-8.91c-4.692-5.94-7.037-13.93-7.037-23.95 0-15.04 3.258-33.08 9.775-54.14 6.516-21.05 14.43-40.46 23.74-58.22l27.285-10.1c.86-.28 1.504-.43 1.934-.43 2.07 0 3.77 1.53 5.1 4.57q1.98 4.575 1.98 12.3c0 14.61-3.37 28.76-10.1 42.44s-17.26 28.29-31.58 43.83c-.58 7.45-.86 12.57-.86 15.36 0 6.23 1.14 11.17 3.44 14.83 2.29 3.65 5.33 5.48 9.13 5.48 3.87 0 7.98-1.4 12.35-4.19q6.54-4.185 19.98-17.4v12.356zM450.1 112.63q13.64-15.166 22.128-33.994 8.485-18.824 8.486-32.38 0-3.98-1.182-6.4-1.183-2.42-3.008-2.42-3.975 0-11.548 19.793c-5.048 13.19-10.008 31.66-14.877 55.4zm121.493 42.003q-13.644 13.43-24.492 19.818c-7.23 4.26-15.21 6.4-23.95 6.4-9.74 0-17.6-3.11-23.58-9.34q-8.97-9.345-8.97-24.6c0-15.18 5.27-28.91 15.79-41.19 10.53-12.28 22.2-18.42 35.02-18.42 6.66 0 12 1.72 16.01 5.16s6.02 7.95 6.02 13.54c0 14.83-15.75 26.86-47.26 36.1 2.87 13.97 10.35 20.95 22.45 20.95 4.73 0 9.24-1.27 13.54-3.81s10.78-8.18 19.45-16.92v12.36zm-56.29-19.873q27.5-7.733 27.5-28.575 0-10.313-7.52-10.313-7.089.001-13.534 10.796-6.45 10.796-6.45 28.092zm118.165 19.873q-13.535 13.43-23.418 19.818c-6.59 4.26-12.855 6.4-18.8 6.4-6.16 0-11.154-2.59-14.984-7.79q-5.748-7.785-5.747-20.46c0-7.44 1.83-17.28 5.51-29.5l4.56-16.26-8.25.43 3.44-16.86 10.21-.43 10.08-33.52 28.69-5.89-11.1 37.36 15.17-.86-3.55 16.55-16.67 1.29-7.16 24.07c-2.49 8.37-3.73 15.02-3.73 19.97 0 3.37.84 6.11 2.52 8.23 1.682 2.12 3.85 3.17 6.51 3.17 3.653 0 7.28-1.16 10.86-3.49 3.59-2.32 8.86-7.18 15.82-14.55v12.35z"/>
          <linearGradient id="a" x1="1603.924" x2="1698.034" y1="1483.083" y2="1483.083" gradientTransform="rotate(9.6 9049.018 -4722.716)" gradientUnits="userSpaceOnUse"><stop offset="0" stop-color="#89C442"/><stop offset="1" stop-color="#74B844"/></linearGradient>
          <path fill="url(#a)" d="M674.318 92.395c2.234 2.608 46.097 17.218 61.347 34.97 15.25 17.754 21.907 33.598 19.754 48.832-2.15 15.234-11.47 14.982-15.54 20.53-4.07 5.547-9.69 12.388-20.49 11.66-14.14-.948-28.72-8.014-39.25-32.54-10.53-24.527-9.72-47.567-8.88-60.35.84-12.78 3.04-23.102 3.04-23.102z"/>
          <linearGradient id="b" x1="1606.047" x2="1687.254" y1="1478.166" y2="1478.166" gradientTransform="rotate(9.6 1169.206 -709.023)" gradientUnits="userSpaceOnUse"><stop offset="0" stop-color="#74B844"/><stop offset="1" stop-color="#4A9634"/></linearGradient>
          <path fill="url(#b)" d="m1239.667 1476.602 65.69 97.927-3.028 3.38" transform="translate(-567.983 -1376)"/>
          <path fill="#3c3c3b" fill-rule="evenodd" d="m419.922 236.713.618-4.337c17.52-9.335 39.344-12.934 57.105-21.945 5.328 2.4 7.697-1.06 13.38-.74 2.062 1.86-2.594 4.35 2.974 3.97 12.65 1.68 24.97-.68 37.41-1.74 13.12-1.12 26.15.13 39.02-.63 4.11-.24 10.44-5.93 15.48-3.1 2.28 4.13-7.44 4.49-4.83 9.05 25.76 6.06 90.19 31.68 101.21 3.81.15 1.7-1.93 5.06 1.11 4.59 21.72-9.72 58.63-30.71 65.13-36.21 7.14-6.04 16.66-5.85 26-8 16.82-3.87 34.77-7.81 49.33-16.29 9 6.25 27.84 9.36 37.91 7.18 10.51-2.28 26.82-19.73 35.55-25.9 3.43-2.42 8.45-7.13 12.14-4.46-2.48 1.7.44 6.68-2.6 5.82-1.59-3.04-4.76.47-7.07-.12-8.79 7.21-17.92 13.96-26.88 20.94-4.18 2.57 4.03 5.23-.87 6.07-23.14 4.6-58.38-6.92-72.968 9.07-23.115 7.91-44.98 9.92-67.76 22.2-13.09 7.06-29.108 19.9-42.734 26.65-2.31 1.15-5.693 1.55-8.423 3.23-3.32 2.04-4.136 4.6-6.937 5.204-6.98 1.503-21.4-2.14-30.48-3.46-30.28-4.4-62.61-16.746-91.184-18.31-11.3-.62-24.64 1.17-37.412 1.744-27.15 1.226-44.13 1.87-65.9 9.19-8.9 2.997-22.59 10.93-28.364 6.58z" clip-rule="evenodd"/>
          <linearGradient id="c" x1="1280.966" x2="1438.704" y1="1562.831" y2="1562.831" gradientTransform="rotate(161.46 940.413 -772.15)" gradientUnits="userSpaceOnUse"><stop offset="0" stop-color="#C1EA71"/><stop offset="1" stop-color="#ACDA55"/></linearGradient>
          <path fill="url(#c)" d="M839.46 0c-3.05 4.944-72.6 40.807-93.475 74.472-20.873 33.665-26.828 60.172-19.26 85.09 7.566 24.914 22.03 23.792 30.275 32.008 8.246 8.22 19.432 18.193 37.3 14.166 23.395-5.275 45.94-20.89 57.155-64.65 11.214-43.762 3.86-82.083-.88-103.242C845.838 16.687 839.462 0 839.462 0z"/>
          <linearGradient id="d" x1="1284.556" x2="1422.002" y1="1554.398" y2="1554.398" gradientTransform="rotate(161.46 1112.102 -37.725)" gradientUnits="userSpaceOnUse"><stop offset="0" stop-color="#ACDA55"/><stop offset="1" stop-color="#89C442"/></linearGradient>
          <path fill="url(#d)" d="m1406.26 1383.39-84.338 180.893 4.95 4.97" transform="translate(-567.983 -1376)"/>
        </svg>
      </g>
      <text x="23" y="11" font-family="'JetBrains Mono', monospace" font-size="8" font-weight="500" fill="#94A3B8" dominant-baseline="central">Leaflet</text>
    </g>

    <g transform="translate(150, 0)">
      <rect width="96" height="22" rx="6" fill="rgba(255,255,255,0.02)" stroke="rgba(255,255,255,0.06)" stroke-width="1" />
      <g transform="translate(4.5, 4.5) scale(0.92)">
        <circle cx="7" cy="7" r="7" fill="#EB6E4B"/>
        <path d="M10.5 7.5A3.5 3.5 0 0 0 5 6 2.5 2.5 0 0 0 2.5 8.5 2.5 2.5 0 0 0 5 11h5.5A2.5 2.5 0 0 0 13 8.5 2.5 2.5 0 0 0 10.5 7.5z" fill="#FFFFFF"/>
      </g>
      <text x="22" y="11" font-family="'JetBrains Mono', monospace" font-size="8" font-weight="500" fill="#94A3B8" dominant-baseline="central">OpenWeatherMap</text>
    </g>

    <g transform="translate(252, 0)">
      <rect width="92" height="22" rx="6" fill="rgba(255,255,255,0.02)" stroke="rgba(255,255,255,0.06)" stroke-width="1" />
      <g transform="translate(5, 5) scale(0.85)">
        <rect width="14" height="14" rx="2" fill="#7EBC6F"/>
        <path d="M4 0v14M9 0v14M0 5h14M0 10h14" stroke="#FFFFFF" stroke-width="0.8" opacity="0.6"/>
        <circle cx="7" cy="7" r="3" fill="#84B0DF" stroke="#231F20" stroke-width="1"/>
        <path d="M9 9l2 2" stroke="#231F20" stroke-width="1.5" stroke-linecap="round"/>
      </g>
      <text x="22" y="11" font-family="'JetBrains Mono', monospace" font-size="8" font-weight="500" fill="#94A3B8" dominant-baseline="central">OpenStreetMap</text>
    </g>
  </g>

  <text x="20" y="174" font-family="'Inter', sans-serif" font-size="9" font-weight="500" fill="#718096" letter-spacing="2.5" text-transform="uppercase">Weather &#160;•&#160; Nature &#160;•&#160; Exploration</text>

</svg>
